<?xml version="1.0" encoding="UTF-8"?>
<svg xmlns="http://www.w3.org/2000/svg" viewBox="0 0 533.33331 533.33331">
<style type="text/css">
  .st0{fill:#F8F8F8;}
  .st1{fill:#DDDDDD;}
  .st2{opacity:0.15;}
</style>
<title>behemoth</title>
<g>
  <polygon class="st0" points="0,31.2 54.2,0 108.3,31.2 108.3,93 54.2,125 0,93  "/>
</g>
<g id="Mask-2">
  <path id="path-2-2" class="st1" d="M7,36L53.8,9l46.8,27v53.3L53.8,117L7,89.3V36z"/>
</g>
<g>
  <g id="Path-295" class="st2">
    <path d="M101.8,36L54,65.3l47.3,24.2L101.8,36z"/>
    <path d="M6,36l47.8,29.3L6.6,89.6L6,36z"/>
  </g>
</g>
<ellipse style="fill:#000000;fill-opacity:1;stroke-width:1.02637076" id="path3782" cx="48" cy="70" rx="37.4" ry="23.8" transform="rotate(-5.3442256)" />
<path d="M 27.4,50.2 C 32,26 32,30.2 32,30.2 l 8,14.6 z" />
<path d="m 70.8,43.4 7.2,-13.4 3.6,19.8 z" />
<path style="fill:#aa0000;" d="m 24,59.6 c 66.2,1.4 65.6,0.76 65.6,0.758 -11.2,17.8 -22.6,18 -36,21 C 29.4,83 25.8,71 24,59,5 Z" />
<path style="fill:#ff0000;" d="m 35,52 c 2,-2 4.8,-4.4 8,-4.4 3.7,0 5.2,2.6 7,5 -7,8.4 -5,2 -6.6,4.6 -2.8,-1 -5.6,-2 -8.4,-5 z" />
<path style="fill:#ff0000;" d="m 60,52 c 2,-2 4.8,-4.4 8,-4.4 3.7,0 5.2,2.6 7,5 -7,8.4 -5,2 -6.6,4.6 -2.8,-1 -5.6,-2 -8.4,-5 z" />
<ellipse style="fill:#000000;fill-opacity:1;stroke-width:1" id="path5001" cx="43" cy="-53" rx="4" ry="4.6" transform="scale(1,-1)" />
<ellipse style="fill:#000000;fill-opacity:1;stroke-width:1" id="path5001" cx="68" cy="-53" rx="4" ry="4.6" transform="scale(1,-1)" />

<path style="fill:none;stroke:#000000;stroke-width:1.2;" d="m 28,80 0,0 2.8,-2.8 6.5,-18.6 2,22.6 6.3,-21.6 3.2,24 6.1,-24 4,23.6 6,-23.8 4.8,20 7,-19.4 4,11.8" /> -->
</svg>
