<?xml version="1.0" encoding="UTF-8"?>
<svg xmlns="http://www.w3.org/2000/svg" viewBox="0 0 533.33331 533.33331">
  <title>behemoth</title>
  <ellipse style="fill:#000000;fill-opacity:1;stroke-width:1.02637076" id="path3782" cx="194.43733" cy="244.55832" rx="187.90034" ry="119.09845" transform="rotate(-5.3442256)" />
  <path d="M 87.307217,151.83867 C 110.08302,55.990509 110.08302,56.939501 110.08302,56.939501 l 40.80664,73.072359 z" />
  <path d="m 304.62632,122.41993 36.06169,-67.378413 18.03084,99.644123 z" />
  <path style="fill:#ff0000;" d="m 70.225381,198.33926 c 281.365169,7.10658 278.071209,3.81262 278.054559,3.79597 -6.73821,89.6621 -63.15495,115.1561 -130.01186,127.16488 C 97.074221,320.77135 79.522581,261.57306 70.225381,198.33926 Z" />
  <path style="fill:#ff0000;" d="m 257.17674,159.63463 c 10.68849,-10.50566 24.13456,-22.0497 40.80664,-22.7758 18.74676,-0.57857 26.04299,13.15603 35.11269,24.67378 -8.16075,12.2745 -20.01894,19.00283 -33.21471,23.72479 -14.23487,-5.29223 -28.46975,-10.46245 -42.70462,-25.62277 z" />
  <path
     style="fill:#ff0000;" d="m 106.08302,163.63464 c 9.2832,-11.99614 19.12156,-23.54815 40.80664,-25.62278 22.52419,3.60544 28.08457,15.69279 36.06168,26.57177 -8.16074,9.36367 -20.01893,16.87863 -33.2147,23.72479 -14.55121,-2.84907 -29.10241,-11.71048 -43.65362,-24.67378 z" />
  <ellipse style="fill:#000000;fill-opacity:1;stroke-width:1.13483918" id="path5001" cx="145.19572" cy="-162.75208" rx="19.928825" ry="23.250296" transform="scale(1,-1)" />
  <path d="m 317.06525,160.37958 a 18.979834,22.775801 0 0 1 -18.71142,22.77352 18.979834,22.775801 0 0 1 -19.24065,-22.1294 18.979834,22.775801 0 0 1 18.16722,-23.39943 18.979834,22.775801 0 0 1 19.75449,21.46758" />
  <path
     style="fill:none;stroke:#000000;stroke-width:1.2;"
     d="m 88.256224,262.87069 8.540921,-66.42941 14.234885,94.89915 27.52075,-93.00118 3.79597,112.93001 32.26572,-108.18505 16.13285,120.52195 32.26572,-120.52194 18.03085,118.62395 27.52075,-119.57295 24.67378,100.59312 25.62278,-97.74614 11.3879,59.78647 v -0.94899" />
</svg>
